<svg viewBox="0 0 220 300" xmlns="http://www.w3.org/2000/svg" opacity="0.25">
  <g fill="#4cca95">
    <path d="M22.72,246.79c-.96,.02-1.93,.02-2.92,.02H3.67c-.38,0-.74,.07-1.09,.17,.35-.12,.73-.18,1.11-.18H22.72Z"/>
    <path d="M209.23,250.47v44.14c0,2.03-1.65,3.68-3.68,3.68H93.93c10.56-4.23,20.75-9.98,30.06-17.75,10.94-9.14,19.9-20.49,26.64-33.76h54.93c2.03,0,3.68,1.65,3.68,3.68Z"/>
    <path d="M155.89,48.69v113.49c0,29.58-4.13,53.52-12.61,73.04-.48,1.12-.97,2.23-1.49,3.32-.4,.83-.79,1.65-1.21,2.46-.99,1.98-2.03,3.9-3.14,5.78-5.62,9.63-12.62,17.98-20.89,24.89-28.24,23.58-66.54,26.62-96.77,26.62H3.67c-2.02,0-3.67-1.65-3.67-3.68v-44.14c0-1.01,.41-1.93,1.07-2.59,.16-.17,.35-.31,.54-.45h.02c.18-.15,.4-.26,.61-.35,.12-.03,.21-.08,.33-.12,.35-.1,.71-.17,1.09-.17H19.8c.99,0,1.97,0,2.92-.02,18.59-.17,33.12-2.05,44.22-5.78,4.74-1.59,8.86-3.5,12.41-5.78,1.5-.96,2.89-1.97,4.2-3.06,13.85-11.57,20.85-35.11,20.85-69.98v-62.03c1.04-.59,2.08-1.21,3.11-1.83,21.78-13.29,38.24-30.29,48.38-49.62Z"/>
    <path d="M3.68,246.79c-.38,0-.76,.07-1.11,.18,.35-.1,.71-.17,1.09-.17H19.8c.99,0,1.97,0,2.92-.02H3.68Z"/>
    <path d="M155.69,10.35c-3.12,30.04-21.3,57.01-51.29,76.26-.96,.61-1.93,1.22-2.91,1.82-.94,.58-1.9,1.16-2.87,1.7-1.9,1.11-3.82,2.18-5.78,3.21-25.4,13.42-56.38,21.42-88.44,22.72-1.31,.05-2.18-.59-2.59-.99-.74-.71-1.14-1.65-1.14-2.68v-44.2c0-1.97,1.49-3.57,3.39-3.67,33.91-1.82,70.46-14,88.79-34.7,2.2-2.5,4.15-5.12,5.78-7.88,2.4-3.98,4.15-8.21,5.14-12.71,.36-1.6,1.92-2.76,3.7-2.76h44.57c1.06,0,2.07,.45,2.78,1.24,.4,.43,1.02,1.34,.89,2.64Z"/>
  </g>
</svg>
